<svg xmlns="http://www.w3.org/2000/svg" viewBox="0 0 640 360" width="640" height="360">
<defs>
<linearGradient id="bg" x1="0" y1="0" x2="1" y2="1"><stop offset="0" stop-color="#1b1b1f"/><stop offset="1" stop-color="#111114"/></linearGradient>
<radialGradient id="glow" cx="0.78" cy="0.42" r="0.55"><stop offset="0" stop-color="#c084fc" stop-opacity="0.45"/><stop offset="1" stop-color="#c084fc" stop-opacity="0"/></radialGradient>
<linearGradient id="acc" gradientUnits="userSpaceOnUse" x1="340" y1="40" x2="620" y2="300"><stop offset="0" stop-color="#c084fc"/><stop offset="1" stop-color="#f472b6"/></linearGradient>
<pattern id="grid" width="24" height="24" patternUnits="userSpaceOnUse"><path d="M24 0H0V24" fill="none" stroke="#fff" stroke-opacity="0.045"/></pattern>
</defs>
<rect width="640" height="360" fill="url(#bg)"/>
<rect width="640" height="360" fill="url(#grid)"/>
<rect width="640" height="360" fill="url(#glow)"/>
<rect x="36" y="38" width="36" height="5" rx="2.5" fill="#c084fc"/>
<text x="36" y="72" font-family="'SF Mono',Menlo,Consolas,monospace" font-size="15" letter-spacing="2" fill="#c084fc">COMPUTER VISION · WEB</text>
<text x="34" y="136" font-family="'Poppins','Segoe UI',Helvetica,Arial,sans-serif" font-size="58" font-weight="700" fill="#fafafa">In-browser</text>
<text x="36" y="172" font-family="'Poppins','Segoe UI',Helvetica,Arial,sans-serif" font-size="20" fill="#c4c4c4">real-time gestures</text>
<g fill="none" stroke-linecap="round" stroke-linejoin="round"><path d="M386 92v-18h18M576 74h18v18M386 248v18h18M576 266h18v-18" stroke="#fff" stroke-opacity="0.6" stroke-width="3"/><line x1="490" y1="250" x2="450" y2="215" stroke="url(#acc)" stroke-width="3"/><line x1="450" y1="215" x2="432" y2="180" stroke="url(#acc)" stroke-width="3"/><line x1="490" y1="250" x2="470" y2="170" stroke="url(#acc)" stroke-width="3"/><line x1="470" y1="170" x2="468" y2="120" stroke="url(#acc)" stroke-width="3"/><line x1="490" y1="250" x2="492" y2="165" stroke="url(#acc)" stroke-width="3"/><line x1="492" y1="165" x2="494" y2="106" stroke="url(#acc)" stroke-width="3"/><line x1="490" y1="250" x2="514" y2="170" stroke="url(#acc)" stroke-width="3"/><line x1="514" y1="170" x2="518" y2="116" stroke="url(#acc)" stroke-width="3"/><line x1="490" y1="250" x2="534" y2="180" stroke="url(#acc)" stroke-width="3"/><line x1="534" y1="180" x2="546" y2="140" stroke="url(#acc)" stroke-width="3"/><circle cx="490" cy="250" r="5" fill="#fafafa" stroke="none"/><circle cx="450" cy="215" r="5" fill="#fafafa" stroke="none"/><circle cx="432" cy="180" r="5" fill="#fafafa" stroke="none"/><circle cx="470" cy="170" r="5" fill="#fafafa" stroke="none"/><circle cx="468" cy="120" r="5" fill="#fafafa" stroke="none"/><circle cx="492" cy="165" r="5" fill="#fafafa" stroke="none"/><circle cx="494" cy="106" r="5" fill="#fafafa" stroke="none"/><circle cx="514" cy="170" r="5" fill="#fafafa" stroke="none"/><circle cx="518" cy="116" r="5" fill="#fafafa" stroke="none"/><circle cx="534" cy="180" r="5" fill="#fafafa" stroke="none"/><circle cx="546" cy="140" r="5" fill="#fafafa" stroke="none"/><rect x="540" y="230" width="56" height="22" rx="11" fill="url(#acc)" stroke="none"/><text x="551" y="245" font-family="'SF Mono',Menlo,Consolas,monospace" font-size="11" fill="#111" stroke="none">palm</text><circle cx="398" cy="104" r="5" fill="#ef4444" stroke="none"/></g>
<rect x="36" y="290" width="126" height="34" rx="17" fill="#fff" fill-opacity="0.07" stroke="#fff" stroke-opacity="0.16"/><text x="49" y="312" font-family="'SF Mono',Menlo,Consolas,monospace" font-size="15" fill="#e8e8e8">MobileNetV2</text><rect x="170.1" y="290" width="144" height="34" rx="17" fill="#fff" fill-opacity="0.07" stroke="#fff" stroke-opacity="0.16"/><text x="183.1" y="312" font-family="'SF Mono',Menlo,Consolas,monospace" font-size="15" fill="#e8e8e8">TensorFlow.js</text>
</svg>