<svg xmlns="http://www.w3.org/2000/svg" viewBox="0 0 640 360" width="640" height="360">
<defs>
<linearGradient id="bg" x1="0" y1="0" x2="1" y2="1"><stop offset="0" stop-color="#1b1b1f"/><stop offset="1" stop-color="#111114"/></linearGradient>
<radialGradient id="glow" cx="0.78" cy="0.42" r="0.55"><stop offset="0" stop-color="#22d3ee" stop-opacity="0.45"/><stop offset="1" stop-color="#22d3ee" stop-opacity="0"/></radialGradient>
<linearGradient id="acc" gradientUnits="userSpaceOnUse" x1="340" y1="40" x2="620" y2="300"><stop offset="0" stop-color="#22d3ee"/><stop offset="1" stop-color="#3b82f6"/></linearGradient>
<pattern id="grid" width="24" height="24" patternUnits="userSpaceOnUse"><path d="M24 0H0V24" fill="none" stroke="#fff" stroke-opacity="0.045"/></pattern>
</defs>
<rect width="640" height="360" fill="url(#bg)"/>
<rect width="640" height="360" fill="url(#grid)"/>
<rect width="640" height="360" fill="url(#glow)"/>
<rect x="36" y="38" width="36" height="5" rx="2.5" fill="#22d3ee"/>
<text x="36" y="72" font-family="'SF Mono',Menlo,Consolas,monospace" font-size="15" letter-spacing="2" fill="#22d3ee">FULL-STACK · MICROSERVICES</text>
<text x="34" y="136" font-family="'Poppins','Segoe UI',Helvetica,Arial,sans-serif" font-size="58" font-weight="700" fill="#fafafa">Rentals</text>
<text x="36" y="172" font-family="'Poppins','Segoe UI',Helvetica,Arial,sans-serif" font-size="20" fill="#c4c4c4">rentals + live chat</text>
<g fill="none" stroke-linecap="round" stroke-linejoin="round"><rect x="372" y="70" width="236" height="190" rx="14" fill="#18181b" stroke="#fff" stroke-opacity="0.2" stroke-width="2"/><path d="M372 150c60-20 90 30 150 0s60-10 86-14M440 70v190M372 210h236" stroke="#fff" stroke-opacity="0.12" stroke-width="6"/><path d="M470 168l34-28 34 28v38h-68z" fill="#232327" stroke="url(#acc)" stroke-width="2.5"/><rect x="496" y="182" width="16" height="24" fill="url(#acc)" stroke="none"/><path d="M420 118c0-12 20-12 20 0 0 10-10 20-10 20s-10-10-10-20z" fill="url(#acc)" stroke="none"/><circle cx="430" cy="118" r="3.5" fill="#111" stroke="none"/><rect x="540" y="88" width="80" height="34" rx="12" fill="#fafafa" stroke="none"/><path d="M552 122l-4 10 14-10" fill="#fafafa" stroke="none"/><text x="552" y="110" font-family="'Poppins','Segoe UI',Helvetica,Arial,sans-serif" font-size="12" fill="#111" stroke="none">Available?</text></g>
<rect x="36" y="290" width="72" height="34" rx="17" fill="#fff" fill-opacity="0.07" stroke="#fff" stroke-opacity="0.16"/><text x="49" y="312" font-family="'SF Mono',Menlo,Consolas,monospace" font-size="15" fill="#e8e8e8">React</text><rect x="115.5" y="290" width="117" height="34" rx="17" fill="#fff" fill-opacity="0.07" stroke="#fff" stroke-opacity="0.16"/><text x="128.5" y="312" font-family="'SF Mono',Menlo,Consolas,monospace" font-size="15" fill="#e8e8e8">TypeScript</text><rect x="240.5" y="290" width="90" height="34" rx="17" fill="#fff" fill-opacity="0.07" stroke="#fff" stroke-opacity="0.16"/><text x="253.5" y="312" font-family="'SF Mono',Menlo,Consolas,monospace" font-size="15" fill="#e8e8e8">ASP.NET</text>
</svg>